# xmcd CD database file
#
# Track frame offsets:
#	150
#	20558
#	40620
#	63599
#	105803
#	168437
#	183560
#
# Disc length: 3210 seconds
#
# Revision: 0
# Processed by: cddbd v1.5.1PL0 Copyright (c) Steve Scherf et al.
# Submitted via: CDex 1.51
#
DISCID=500c8807
DTITLE=Blachman, Thomas - Star Music Opus 1
DYEAR=1900
DGENRE=Jazz
TTITLE0=1
TTITLE1=2
TTITLE2=3
TTITLE3=4
TTITLE4=5
TTITLE5=6
TTITLE6=7
EXTD=
EXTT0=
EXTT1=
EXTT2=
EXTT3=
EXTT4=
EXTT5=
EXTT6=
PLAYORDER=
